<svg width="248" height="33" viewBox="0 0 248 33" fill="none" xmlns="http://www.w3.org/2000/svg">
<path d="M15.556 8.9C13.428 8.9 11.804 9.362 10.684 10.286C9.564 11.21 9.004 12.61 9.004 14.486V15.494H20.302V21.92H9.004V32H0.688V14.612C0.688 10.608 1.934 7.514 4.426 5.33C6.918 3.118 10.418 2.012 14.926 2.012C16.634 2.012 18.23 2.18 19.714 2.516C21.226 2.852 22.514 3.328 23.578 3.944L21.142 10.328C19.518 9.376 17.656 8.9 15.556 8.9ZM36.7594 32.378C34.3234 32.378 32.1254 31.874 30.1654 30.866C28.2054 29.858 26.6654 28.458 25.5454 26.666C24.4534 24.874 23.9074 22.844 23.9074 20.576C23.9074 18.336 24.4534 16.32 25.5454 14.528C26.6654 12.736 28.1914 11.35 30.1234 10.37C32.0834 9.362 34.2954 8.858 36.7594 8.858C39.2234 8.858 41.4354 9.362 43.3954 10.37C45.3554 11.35 46.8814 12.736 47.9734 14.528C49.0654 16.292 49.6114 18.308 49.6114 20.576C49.6114 22.844 49.0654 24.874 47.9734 26.666C46.8814 28.458 45.3554 29.858 43.3954 30.866C41.4354 31.874 39.2234 32.378 36.7594 32.378ZM36.7594 26.036C38.1594 26.036 39.3074 25.56 40.2034 24.608C41.0994 23.628 41.5474 22.284 41.5474 20.576C41.5474 18.896 41.0994 17.58 40.2034 16.628C39.3074 15.676 38.1594 15.2 36.7594 15.2C35.3594 15.2 34.2114 15.676 33.3154 16.628C32.4194 17.58 31.9714 18.896 31.9714 20.576C31.9714 22.284 32.4194 23.628 33.3154 24.608C34.2114 25.56 35.3594 26.036 36.7594 26.036ZM64.7321 32.378C62.2961 32.378 60.0981 31.874 58.1381 30.866C56.1781 29.858 54.6381 28.458 53.5181 26.666C52.4261 24.874 51.8801 22.844 51.8801 20.576C51.8801 18.336 52.4261 16.32 53.5181 14.528C54.6381 12.736 56.1641 11.35 58.0961 10.37C60.0561 9.362 62.2681 8.858 64.7321 8.858C67.1961 8.858 69.4081 9.362 71.3681 10.37C73.3281 11.35 74.8541 12.736 75.9461 14.528C77.0381 16.292 77.5841 18.308 77.5841 20.576C77.5841 22.844 77.0381 24.874 75.9461 26.666C74.8541 28.458 73.3281 29.858 71.3681 30.866C69.4081 31.874 67.1961 32.378 64.7321 32.378ZM64.7321 26.036C66.1321 26.036 67.2801 25.56 68.1761 24.608C69.0721 23.628 69.5201 22.284 69.5201 20.576C69.5201 18.896 69.0721 17.58 68.1761 16.628C67.2801 15.676 66.1321 15.2 64.7321 15.2C63.3321 15.2 62.1841 15.676 61.2881 16.628C60.3921 17.58 59.9441 18.896 59.9441 20.576C59.9441 22.284 60.3921 23.628 61.2881 24.608C62.1841 25.56 63.3321 26.036 64.7321 26.036ZM105.473 0.835998V32H97.8708V29.732C96.3868 31.496 94.1608 32.378 91.1928 32.378C89.1208 32.378 87.2308 31.902 85.5228 30.95C83.8148 29.97 82.4568 28.584 81.4488 26.792C80.4688 25 79.9788 22.928 79.9788 20.576C79.9788 18.224 80.4688 16.166 81.4488 14.402C82.4568 12.61 83.8148 11.238 85.5228 10.286C87.2308 9.334 89.1208 8.858 91.1928 8.858C93.9088 8.858 96.0088 9.642 97.4928 11.21V0.835998H105.473ZM92.8728 26.036C94.2448 26.036 95.3788 25.56 96.2748 24.608C97.1708 23.628 97.6188 22.284 97.6188 20.576C97.6188 18.896 97.1708 17.58 96.2748 16.628C95.4068 15.676 94.2728 15.2 92.8728 15.2C91.4728 15.2 90.3248 15.676 89.4288 16.628C88.5328 17.58 88.0848 18.896 88.0848 20.576C88.0848 22.284 88.5328 23.628 89.4288 24.608C90.3248 25.56 91.4728 26.036 92.8728 26.036Z" fill="#FE8C01"/>
<path d="M138.957 2.6V32H130.641V20.534H119.301V32H110.985V2.6H119.301V13.646H130.641V2.6H138.957ZM155.869 32.378C153.433 32.378 151.235 31.874 149.275 30.866C147.315 29.858 145.775 28.458 144.655 26.666C143.563 24.874 143.017 22.844 143.017 20.576C143.017 18.336 143.563 16.32 144.655 14.528C145.775 12.736 147.301 11.35 149.233 10.37C151.193 9.362 153.405 8.858 155.869 8.858C158.333 8.858 160.545 9.362 162.505 10.37C164.465 11.35 165.991 12.736 167.083 14.528C168.175 16.292 168.721 18.308 168.721 20.576C168.721 22.844 168.175 24.874 167.083 26.666C165.991 28.458 164.465 29.858 162.505 30.866C160.545 31.874 158.333 32.378 155.869 32.378ZM155.869 26.036C157.269 26.036 158.417 25.56 159.313 24.608C160.209 23.628 160.657 22.284 160.657 20.576C160.657 18.896 160.209 17.58 159.313 16.628C158.417 15.676 157.269 15.2 155.869 15.2C154.469 15.2 153.321 15.676 152.425 16.628C151.529 17.58 151.081 18.896 151.081 20.576C151.081 22.284 151.529 23.628 152.425 24.608C153.321 25.56 154.469 26.036 155.869 26.036ZM196.357 9.236V32H188.755V29.564C187.915 30.488 186.907 31.188 185.731 31.664C184.555 32.14 183.309 32.378 181.993 32.378C179.053 32.378 176.701 31.51 174.937 29.774C173.201 28.038 172.333 25.434 172.333 21.962V9.236H180.313V20.66C180.313 22.368 180.635 23.614 181.279 24.398C181.923 25.182 182.861 25.574 184.093 25.574C185.353 25.574 186.375 25.14 187.159 24.272C187.971 23.376 188.377 22.018 188.377 20.198V9.236H196.357ZM209.772 32.378C207.868 32.378 205.992 32.168 204.144 31.748C202.296 31.3 200.812 30.726 199.692 30.026L202.086 24.566C203.122 25.21 204.354 25.728 205.782 26.12C207.21 26.484 208.624 26.666 210.024 26.666C211.312 26.666 212.222 26.54 212.754 26.288C213.314 26.008 213.594 25.616 213.594 25.112C213.594 24.608 213.258 24.258 212.586 24.062C211.942 23.838 210.906 23.628 209.478 23.432C207.658 23.208 206.104 22.914 204.816 22.55C203.556 22.186 202.464 21.514 201.54 20.534C200.616 19.554 200.154 18.182 200.154 16.418C200.154 14.962 200.588 13.674 201.456 12.554C202.324 11.406 203.584 10.51 205.236 9.866C206.916 9.194 208.918 8.858 211.242 8.858C212.894 8.858 214.532 9.026 216.156 9.362C217.78 9.698 219.138 10.174 220.23 10.79L217.836 16.208C215.82 15.088 213.636 14.528 211.284 14.528C210.024 14.528 209.1 14.682 208.512 14.99C207.924 15.27 207.63 15.648 207.63 16.124C207.63 16.656 207.952 17.034 208.596 17.258C209.24 17.454 210.304 17.664 211.788 17.888C213.664 18.168 215.218 18.49 216.45 18.854C217.682 19.218 218.746 19.89 219.642 20.87C220.566 21.822 221.028 23.166 221.028 24.902C221.028 26.33 220.594 27.618 219.726 28.766C218.858 29.886 217.57 30.768 215.862 31.412C214.182 32.056 212.152 32.378 209.772 32.378ZM236.646 26.288C237.738 26.288 238.676 26.134 239.46 25.826C240.272 25.518 241.084 25.014 241.896 24.314L246.054 28.682C243.898 31.146 240.678 32.378 236.394 32.378C233.734 32.378 231.396 31.874 229.38 30.866C227.364 29.858 225.796 28.458 224.676 26.666C223.584 24.874 223.038 22.844 223.038 20.576C223.038 18.336 223.584 16.334 224.676 14.57C225.768 12.778 227.266 11.378 229.17 10.37C231.102 9.362 233.258 8.858 235.638 8.858C237.85 8.858 239.866 9.32 241.686 10.244C243.534 11.14 245.004 12.47 246.096 14.234C247.188 15.97 247.734 18.042 247.734 20.45L231.48 23.558C232.348 25.378 234.07 26.288 236.646 26.288ZM235.68 14.528C234.308 14.528 233.188 14.962 232.32 15.83C231.452 16.67 230.962 17.888 230.85 19.484L240.09 17.678C239.81 16.726 239.278 15.97 238.494 15.41C237.71 14.822 236.772 14.528 235.68 14.528Z" fill="#232323"/>
</svg>
